<mxfile host="Electron" modified="2024-03-17T12:50:06.603Z" agent="Mozilla/5.0 (Windows NT 10.0; Win64; x64) AppleWebKit/537.36 (KHTML, like Gecko) draw.io/23.1.5 Chrome/120.0.6099.109 Electron/28.1.0 Safari/537.36" etag="HUmSPbkHvdIX5N02IOz3" version="23.1.5" type="device" pages="2">
  <diagram name="BFD" id="jn7xTza3BsFgUk0-x4m1">
    <mxGraphModel dx="1434" dy="854" grid="1" gridSize="10" guides="1" tooltips="1" connect="1" arrows="1" fold="1" page="1" pageScale="1" pageWidth="1169" pageHeight="1654" math="0" shadow="0">
      <root>
        <mxCell id="0" />
        <mxCell id="1" parent="0" />
        <mxCell id="qcmupyf4XHxVYtdTeRFq-1" value="&lt;font style=&quot;font-size: 12px;&quot;&gt;Quản&lt;br&gt;lý &lt;span style=&quot;font-family: &amp;quot;Times New Roman&amp;quot;, serif;&quot; lang=&quot;VI&quot;&gt;thư viện&lt;br&gt;trường đại học&lt;/span&gt;&lt;/font&gt;" style="rounded=0;whiteSpace=wrap;html=1;" parent="1" vertex="1">
          <mxGeometry x="480" y="200" width="120" height="60" as="geometry" />
        </mxCell>
        <mxCell id="qcmupyf4XHxVYtdTeRFq-3" value="&lt;font style=&quot;font-size: 12px;&quot;&gt;B1.&lt;br&gt;&lt;span style=&quot;font-family: &amp;quot;Times New Roman&amp;quot;, serif;&quot; lang=&quot;VI&quot;&gt;Nghiệp&lt;br&gt;vụ thủ thư&lt;/span&gt;&lt;/font&gt;" style="rounded=0;whiteSpace=wrap;html=1;" parent="1" vertex="1">
          <mxGeometry x="160" y="360" width="120" height="60" as="geometry" />
        </mxCell>
        <mxCell id="qcmupyf4XHxVYtdTeRFq-4" value="B2. Quản&lt;br/&gt;lý sách không mật" style="rounded=0;whiteSpace=wrap;html=1;" parent="1" vertex="1">
          <mxGeometry x="480" y="360" width="120" height="60" as="geometry" />
        </mxCell>
        <mxCell id="qcmupyf4XHxVYtdTeRFq-5" value="B3. Quản&lt;br/&gt;lý sách mật" style="rounded=0;whiteSpace=wrap;html=1;" parent="1" vertex="1">
          <mxGeometry x="800" y="360" width="120" height="60" as="geometry" />
        </mxCell>
        <mxCell id="qcmupyf4XHxVYtdTeRFq-6" value="" style="endArrow=none;html=1;rounded=0;entryX=0.5;entryY=1;entryDx=0;entryDy=0;" parent="1" target="qcmupyf4XHxVYtdTeRFq-1" edge="1">
          <mxGeometry width="50" height="50" relative="1" as="geometry">
            <mxPoint x="540" y="320" as="sourcePoint" />
            <mxPoint x="550" y="280" as="targetPoint" />
          </mxGeometry>
        </mxCell>
        <mxCell id="qcmupyf4XHxVYtdTeRFq-7" value="" style="endArrow=none;html=1;rounded=0;" parent="1" edge="1">
          <mxGeometry width="50" height="50" relative="1" as="geometry">
            <mxPoint x="220" y="320" as="sourcePoint" />
            <mxPoint x="860" y="320" as="targetPoint" />
          </mxGeometry>
        </mxCell>
        <mxCell id="qcmupyf4XHxVYtdTeRFq-8" value="" style="endArrow=none;html=1;rounded=0;entryX=0.5;entryY=1;entryDx=0;entryDy=0;exitX=0.5;exitY=0;exitDx=0;exitDy=0;" parent="1" source="qcmupyf4XHxVYtdTeRFq-5" edge="1">
          <mxGeometry width="50" height="50" relative="1" as="geometry">
            <mxPoint x="880" y="340" as="sourcePoint" />
            <mxPoint x="859.5" y="320" as="targetPoint" />
          </mxGeometry>
        </mxCell>
        <mxCell id="qcmupyf4XHxVYtdTeRFq-9" value="" style="endArrow=none;html=1;rounded=0;entryX=0.5;entryY=1;entryDx=0;entryDy=0;exitX=0.5;exitY=0;exitDx=0;exitDy=0;" parent="1" source="qcmupyf4XHxVYtdTeRFq-4" edge="1">
          <mxGeometry width="50" height="50" relative="1" as="geometry">
            <mxPoint x="570" y="350" as="sourcePoint" />
            <mxPoint x="539.5" y="320" as="targetPoint" />
          </mxGeometry>
        </mxCell>
        <mxCell id="qcmupyf4XHxVYtdTeRFq-10" value="" style="endArrow=none;html=1;rounded=0;entryX=0.5;entryY=1;entryDx=0;entryDy=0;exitX=0.5;exitY=0;exitDx=0;exitDy=0;" parent="1" source="qcmupyf4XHxVYtdTeRFq-3" edge="1">
          <mxGeometry width="50" height="50" relative="1" as="geometry">
            <mxPoint x="219.5" y="370" as="sourcePoint" />
            <mxPoint x="219.5" y="320" as="targetPoint" />
          </mxGeometry>
        </mxCell>
        <mxCell id="qcmupyf4XHxVYtdTeRFq-11" value="" style="endArrow=none;html=1;rounded=0;entryX=0.5;entryY=1;entryDx=0;entryDy=0;" parent="1" target="qcmupyf4XHxVYtdTeRFq-3" edge="1">
          <mxGeometry width="50" height="50" relative="1" as="geometry">
            <mxPoint x="220" y="870" as="sourcePoint" />
            <mxPoint x="220" y="550" as="targetPoint" />
          </mxGeometry>
        </mxCell>
        <mxCell id="qcmupyf4XHxVYtdTeRFq-12" value="" style="endArrow=none;html=1;rounded=0;entryX=0.5;entryY=1;entryDx=0;entryDy=0;" parent="1" target="qcmupyf4XHxVYtdTeRFq-4" edge="1">
          <mxGeometry width="50" height="50" relative="1" as="geometry">
            <mxPoint x="540" y="630" as="sourcePoint" />
            <mxPoint x="530" y="430" as="targetPoint" />
          </mxGeometry>
        </mxCell>
        <mxCell id="qcmupyf4XHxVYtdTeRFq-13" value="" style="endArrow=none;html=1;rounded=0;entryX=0.5;entryY=1;entryDx=0;entryDy=0;" parent="1" target="qcmupyf4XHxVYtdTeRFq-5" edge="1">
          <mxGeometry width="50" height="50" relative="1" as="geometry">
            <mxPoint x="860" y="630" as="sourcePoint" />
            <mxPoint x="859.5" y="450" as="targetPoint" />
          </mxGeometry>
        </mxCell>
        <mxCell id="qcmupyf4XHxVYtdTeRFq-14" value="&lt;p style=&quot;text-align:left&quot; align=&quot;left&quot; class=&quot;MsoNormal&quot;&gt;C05. Cho mượn sách không mật&lt;/p&gt;" style="rounded=0;whiteSpace=wrap;html=1;" parent="1" vertex="1">
          <mxGeometry x="600" y="440" width="120" height="60" as="geometry" />
        </mxCell>
        <mxCell id="qcmupyf4XHxVYtdTeRFq-15" value="&lt;p style=&quot;text-align:left&quot; align=&quot;left&quot; class=&quot;MsoNormal&quot;&gt;C11. Đếm kiểm kê sách không mật&lt;/p&gt;" style="rounded=0;whiteSpace=wrap;html=1;" parent="1" vertex="1">
          <mxGeometry x="600" y="520" width="120" height="60" as="geometry" />
        </mxCell>
        <mxCell id="qcmupyf4XHxVYtdTeRFq-16" value="C16. Sắp&lt;br&gt;xếp sách không mật" style="rounded=0;whiteSpace=wrap;html=1;" parent="1" vertex="1">
          <mxGeometry x="600" y="600" width="120" height="60" as="geometry" />
        </mxCell>
        <mxCell id="qcmupyf4XHxVYtdTeRFq-17" value="&lt;p style=&quot;text-align:left&quot; align=&quot;left&quot; class=&quot;MsoNormal&quot;&gt;C08. Cho mượn sách mật&lt;/p&gt;" style="rounded=0;whiteSpace=wrap;html=1;" parent="1" vertex="1">
          <mxGeometry x="920" y="440" width="120" height="60" as="geometry" />
        </mxCell>
        <mxCell id="qcmupyf4XHxVYtdTeRFq-18" value="&lt;p style=&quot;text-align:left&quot; align=&quot;left&quot; class=&quot;MsoNormal&quot;&gt;C12. Đếm kiểm kê sách mật&lt;/p&gt;" style="rounded=0;whiteSpace=wrap;html=1;" parent="1" vertex="1">
          <mxGeometry x="920" y="520" width="120" height="60" as="geometry" />
        </mxCell>
        <mxCell id="qcmupyf4XHxVYtdTeRFq-19" value="C17. Sắp&lt;br&gt;xếp sách mật" style="rounded=0;whiteSpace=wrap;html=1;" parent="1" vertex="1">
          <mxGeometry x="920" y="600" width="120" height="60" as="geometry" />
        </mxCell>
        <mxCell id="qcmupyf4XHxVYtdTeRFq-20" value="&lt;p style=&quot;text-align:left&quot; align=&quot;left&quot; class=&quot;MsoNormal&quot;&gt;C01. Tiếp nhận yêu cầu từ bạn đọc&lt;/p&gt;" style="rounded=0;whiteSpace=wrap;html=1;" parent="1" vertex="1">
          <mxGeometry x="280" y="440" width="120" height="60" as="geometry" />
        </mxCell>
        <mxCell id="qcmupyf4XHxVYtdTeRFq-21" value="&lt;font style=&quot;font-size: 12px;&quot;&gt;C03.&lt;br&gt;&lt;span style=&quot;line-height: 107%; font-family: &amp;quot;Times New Roman&amp;quot;, serif;&quot; lang=&quot;VI&quot;&gt;Hủy bạn đọc&amp;nbsp;&lt;/span&gt;&lt;/font&gt;" style="rounded=0;whiteSpace=wrap;html=1;" parent="1" vertex="1">
          <mxGeometry x="280" y="520" width="120" height="60" as="geometry" />
        </mxCell>
        <mxCell id="qcmupyf4XHxVYtdTeRFq-22" value="&lt;p style=&quot;text-align:left&quot; align=&quot;left&quot; class=&quot;MsoNormal&quot;&gt;C06. &lt;span lang=&quot;VI&quot;&gt;So khớp thông tin / yêu cầu điều chỉnh&lt;/span&gt;&lt;/p&gt;" style="rounded=0;whiteSpace=wrap;html=1;" parent="1" vertex="1">
          <mxGeometry x="280" y="600" width="120" height="60" as="geometry" />
        </mxCell>
        <mxCell id="qcmupyf4XHxVYtdTeRFq-23" value="&lt;p style=&quot;text-align:left&quot; align=&quot;left&quot; class=&quot;MsoNormal&quot;&gt;C02. Tạo mới / cấp lại thẻ thư viện&lt;/p&gt;" style="rounded=0;whiteSpace=wrap;html=1;" parent="1" vertex="1">
          <mxGeometry x="40" y="480" width="120" height="60" as="geometry" />
        </mxCell>
        <mxCell id="qcmupyf4XHxVYtdTeRFq-24" value="&lt;p style=&quot;text-align:left&quot; align=&quot;left&quot; class=&quot;MsoNormal&quot;&gt;C04. &lt;span lang=&quot;VI&quot;&gt;Báo cáo lên quản lý&lt;/span&gt;&lt;/p&gt;" style="rounded=0;whiteSpace=wrap;html=1;" parent="1" vertex="1">
          <mxGeometry x="40" y="560" width="120" height="60" as="geometry" />
        </mxCell>
        <mxCell id="qcmupyf4XHxVYtdTeRFq-25" value="&lt;p style=&quot;text-align:left&quot; align=&quot;left&quot; class=&quot;MsoNormal&quot;&gt;C07. Lưu thông tin mượn/trả&lt;/p&gt;" style="rounded=0;whiteSpace=wrap;html=1;" parent="1" vertex="1">
          <mxGeometry x="40" y="640" width="120" height="60" as="geometry" />
        </mxCell>
        <mxCell id="qcmupyf4XHxVYtdTeRFq-26" value="&lt;p style=&quot;text-align:left&quot; align=&quot;left&quot; class=&quot;MsoNormal&quot;&gt;C09. Trả sách&lt;/p&gt;" style="rounded=0;whiteSpace=wrap;html=1;" parent="1" vertex="1">
          <mxGeometry x="280" y="680" width="120" height="60" as="geometry" />
        </mxCell>
        <mxCell id="qcmupyf4XHxVYtdTeRFq-27" value="&lt;p style=&quot;text-align:left&quot; align=&quot;left&quot; class=&quot;MsoNormal&quot;&gt;C10. Phạt&lt;/p&gt;" style="rounded=0;whiteSpace=wrap;html=1;" parent="1" vertex="1">
          <mxGeometry x="40" y="720" width="120" height="60" as="geometry" />
        </mxCell>
        <mxCell id="qcmupyf4XHxVYtdTeRFq-28" value="&lt;p style=&quot;text-align:left&quot; align=&quot;left&quot; class=&quot;MsoNormal&quot;&gt;C13. Thanh lọc&lt;/p&gt;" style="rounded=0;whiteSpace=wrap;html=1;" parent="1" vertex="1">
          <mxGeometry x="280" y="760" width="120" height="60" as="geometry" />
        </mxCell>
        <mxCell id="qcmupyf4XHxVYtdTeRFq-29" value="&lt;p style=&quot;text-align:left&quot; align=&quot;left&quot; class=&quot;MsoNormal&quot;&gt;C14. Nhập sách&lt;/p&gt;" style="rounded=0;whiteSpace=wrap;html=1;" parent="1" vertex="1">
          <mxGeometry x="40" y="800" width="120" height="60" as="geometry" />
        </mxCell>
        <mxCell id="qcmupyf4XHxVYtdTeRFq-30" value="C15. Biên&lt;br/&gt;mục" style="rounded=0;whiteSpace=wrap;html=1;" parent="1" vertex="1">
          <mxGeometry x="280" y="840" width="120" height="60" as="geometry" />
        </mxCell>
        <mxCell id="qcmupyf4XHxVYtdTeRFq-32" value="" style="endArrow=none;html=1;rounded=0;entryX=0;entryY=0.5;entryDx=0;entryDy=0;" parent="1" target="qcmupyf4XHxVYtdTeRFq-20" edge="1">
          <mxGeometry width="50" height="50" relative="1" as="geometry">
            <mxPoint x="220" y="470" as="sourcePoint" />
            <mxPoint x="270" y="470" as="targetPoint" />
          </mxGeometry>
        </mxCell>
        <mxCell id="qcmupyf4XHxVYtdTeRFq-33" value="" style="endArrow=none;html=1;rounded=0;entryX=0;entryY=0.5;entryDx=0;entryDy=0;" parent="1" edge="1">
          <mxGeometry width="50" height="50" relative="1" as="geometry">
            <mxPoint x="160" y="509.5" as="sourcePoint" />
            <mxPoint x="220" y="509.5" as="targetPoint" />
          </mxGeometry>
        </mxCell>
        <mxCell id="qcmupyf4XHxVYtdTeRFq-34" value="" style="endArrow=none;html=1;rounded=0;entryX=0;entryY=0.5;entryDx=0;entryDy=0;" parent="1" edge="1">
          <mxGeometry width="50" height="50" relative="1" as="geometry">
            <mxPoint x="220" y="549.5" as="sourcePoint" />
            <mxPoint x="280" y="549.5" as="targetPoint" />
          </mxGeometry>
        </mxCell>
        <mxCell id="qcmupyf4XHxVYtdTeRFq-35" value="" style="endArrow=none;html=1;rounded=0;entryX=0;entryY=0.5;entryDx=0;entryDy=0;" parent="1" edge="1">
          <mxGeometry width="50" height="50" relative="1" as="geometry">
            <mxPoint x="160" y="589.5" as="sourcePoint" />
            <mxPoint x="220" y="589.5" as="targetPoint" />
          </mxGeometry>
        </mxCell>
        <mxCell id="qcmupyf4XHxVYtdTeRFq-36" value="" style="endArrow=none;html=1;rounded=0;entryX=0;entryY=0.5;entryDx=0;entryDy=0;" parent="1" edge="1">
          <mxGeometry width="50" height="50" relative="1" as="geometry">
            <mxPoint x="220" y="629.5" as="sourcePoint" />
            <mxPoint x="280" y="629.5" as="targetPoint" />
          </mxGeometry>
        </mxCell>
        <mxCell id="qcmupyf4XHxVYtdTeRFq-37" value="" style="endArrow=none;html=1;rounded=0;entryX=0;entryY=0.5;entryDx=0;entryDy=0;" parent="1" edge="1">
          <mxGeometry width="50" height="50" relative="1" as="geometry">
            <mxPoint x="160" y="669.5" as="sourcePoint" />
            <mxPoint x="220" y="669.5" as="targetPoint" />
          </mxGeometry>
        </mxCell>
        <mxCell id="qcmupyf4XHxVYtdTeRFq-38" value="" style="endArrow=none;html=1;rounded=0;entryX=0;entryY=0.5;entryDx=0;entryDy=0;" parent="1" edge="1">
          <mxGeometry width="50" height="50" relative="1" as="geometry">
            <mxPoint x="220" y="709.5" as="sourcePoint" />
            <mxPoint x="280" y="709.5" as="targetPoint" />
          </mxGeometry>
        </mxCell>
        <mxCell id="qcmupyf4XHxVYtdTeRFq-39" value="" style="endArrow=none;html=1;rounded=0;entryX=0;entryY=0.5;entryDx=0;entryDy=0;" parent="1" edge="1">
          <mxGeometry width="50" height="50" relative="1" as="geometry">
            <mxPoint x="160" y="749.5" as="sourcePoint" />
            <mxPoint x="220" y="749.5" as="targetPoint" />
          </mxGeometry>
        </mxCell>
        <mxCell id="qcmupyf4XHxVYtdTeRFq-40" value="" style="endArrow=none;html=1;rounded=0;entryX=0;entryY=0.5;entryDx=0;entryDy=0;" parent="1" edge="1">
          <mxGeometry width="50" height="50" relative="1" as="geometry">
            <mxPoint x="220" y="789.5" as="sourcePoint" />
            <mxPoint x="280" y="789.5" as="targetPoint" />
          </mxGeometry>
        </mxCell>
        <mxCell id="qcmupyf4XHxVYtdTeRFq-41" value="" style="endArrow=none;html=1;rounded=0;entryX=0;entryY=0.5;entryDx=0;entryDy=0;" parent="1" edge="1">
          <mxGeometry width="50" height="50" relative="1" as="geometry">
            <mxPoint x="160" y="829.5" as="sourcePoint" />
            <mxPoint x="220" y="829.5" as="targetPoint" />
          </mxGeometry>
        </mxCell>
        <mxCell id="qcmupyf4XHxVYtdTeRFq-42" value="" style="endArrow=none;html=1;rounded=0;entryX=0;entryY=0.5;entryDx=0;entryDy=0;" parent="1" edge="1">
          <mxGeometry width="50" height="50" relative="1" as="geometry">
            <mxPoint x="220" y="869.5" as="sourcePoint" />
            <mxPoint x="280" y="869.5" as="targetPoint" />
          </mxGeometry>
        </mxCell>
        <mxCell id="qcmupyf4XHxVYtdTeRFq-43" value="" style="endArrow=none;html=1;rounded=0;entryX=0;entryY=0.5;entryDx=0;entryDy=0;" parent="1" edge="1">
          <mxGeometry width="50" height="50" relative="1" as="geometry">
            <mxPoint x="540" y="469.5" as="sourcePoint" />
            <mxPoint x="600" y="469.5" as="targetPoint" />
          </mxGeometry>
        </mxCell>
        <mxCell id="qcmupyf4XHxVYtdTeRFq-44" value="" style="endArrow=none;html=1;rounded=0;entryX=0;entryY=0.5;entryDx=0;entryDy=0;" parent="1" edge="1">
          <mxGeometry width="50" height="50" relative="1" as="geometry">
            <mxPoint x="540" y="549.5" as="sourcePoint" />
            <mxPoint x="600" y="549.5" as="targetPoint" />
          </mxGeometry>
        </mxCell>
        <mxCell id="qcmupyf4XHxVYtdTeRFq-45" value="" style="endArrow=none;html=1;rounded=0;entryX=0;entryY=0.5;entryDx=0;entryDy=0;" parent="1" edge="1">
          <mxGeometry width="50" height="50" relative="1" as="geometry">
            <mxPoint x="540" y="630" as="sourcePoint" />
            <mxPoint x="600" y="630" as="targetPoint" />
          </mxGeometry>
        </mxCell>
        <mxCell id="qcmupyf4XHxVYtdTeRFq-46" value="" style="endArrow=none;html=1;rounded=0;entryX=0;entryY=0.5;entryDx=0;entryDy=0;" parent="1" edge="1">
          <mxGeometry width="50" height="50" relative="1" as="geometry">
            <mxPoint x="860" y="629.5" as="sourcePoint" />
            <mxPoint x="920" y="629.5" as="targetPoint" />
          </mxGeometry>
        </mxCell>
        <mxCell id="qcmupyf4XHxVYtdTeRFq-47" value="" style="endArrow=none;html=1;rounded=0;entryX=0;entryY=0.5;entryDx=0;entryDy=0;" parent="1" edge="1">
          <mxGeometry width="50" height="50" relative="1" as="geometry">
            <mxPoint x="860" y="549.5" as="sourcePoint" />
            <mxPoint x="920" y="549.5" as="targetPoint" />
          </mxGeometry>
        </mxCell>
        <mxCell id="qcmupyf4XHxVYtdTeRFq-48" value="" style="endArrow=none;html=1;rounded=0;entryX=0;entryY=0.5;entryDx=0;entryDy=0;" parent="1" edge="1">
          <mxGeometry width="50" height="50" relative="1" as="geometry">
            <mxPoint x="860" y="469.5" as="sourcePoint" />
            <mxPoint x="920" y="469.5" as="targetPoint" />
          </mxGeometry>
        </mxCell>
      </root>
    </mxGraphModel>
  </diagram>
  <diagram id="osyKGIu4O9Wc8irGAPE0" name="Page-2">
    <mxGraphModel dx="1134" dy="754" grid="1" gridSize="10" guides="1" tooltips="1" connect="1" arrows="1" fold="1" page="1" pageScale="1" pageWidth="1169" pageHeight="1654" math="0" shadow="0">
      <root>
        <mxCell id="0" />
        <mxCell id="1" parent="0" />
        <mxCell id="cpwp5s3-ZLpBdJ46yz0C-1" value="" style="rounded=0;whiteSpace=wrap;html=1;" vertex="1" parent="1">
          <mxGeometry x="650" y="540" width="120" height="60" as="geometry" />
        </mxCell>
        <mxCell id="cpwp5s3-ZLpBdJ46yz0C-2" value="" style="ellipse;whiteSpace=wrap;html=1;" vertex="1" parent="1">
          <mxGeometry x="420" y="530" width="120" height="80" as="geometry" />
        </mxCell>
        <mxCell id="cpwp5s3-ZLpBdJ46yz0C-3" value="" style="html=1;dashed=0;whiteSpace=wrap;shape=partialRectangle;right=0;left=0;" vertex="1" parent="1">
          <mxGeometry x="590" y="770" width="100" height="30" as="geometry" />
        </mxCell>
        <mxCell id="cpwp5s3-ZLpBdJ46yz0C-4" value="" style="endArrow=none;dashed=1;html=1;rounded=0;" edge="1" parent="1">
          <mxGeometry width="50" height="50" relative="1" as="geometry">
            <mxPoint x="130" y="460" as="sourcePoint" />
            <mxPoint x="290" y="270" as="targetPoint" />
          </mxGeometry>
        </mxCell>
      </root>
    </mxGraphModel>
  </diagram>
</mxfile>
